<?xml version="1.0" encoding="UTF-8"?> <svg xmlns="http://www.w3.org/2000/svg" xmlns:xlink="http://www.w3.org/1999/xlink" viewBox="110 25 310 80"><defs><style>.cls-1,.cls-14{fill:none;}.cls-2{fill:#4d4d4d;}.cls-3{fill:#f15a24;}.cls-4{fill:#9b0f00;}.cls-5{isolation:isolate;}.cls-6{clip-path:url(#clip-path);}.cls-7{fill:#f7931e;}.cls-8{clip-path:url(#clip-path-2);}.cls-9{clip-path:url(#clip-path-3);}.cls-10{fill:#333;}.cls-11{clip-path:url(#clip-path-4);}.cls-12{clip-path:url(#clip-path-5);}.cls-13{fill:#999;}.cls-14{stroke:#9b0f00;stroke-linecap:round;stroke-linejoin:round;stroke-width:2px;}</style><clipPath id="clip-path"><polygon class="cls-1" points="114.41 69.42 122.56 50.75 165.69 50.75 157.54 69.42 114.41 69.42"></polygon></clipPath><clipPath id="clip-path-2"><polygon class="cls-1" points="144.74 81.08 152.89 62.41 196.03 62.41 187.88 81.08 144.74 81.08"></polygon></clipPath><clipPath id="clip-path-3"><polygon class="cls-1" points="183.83 71.17 191.97 52.5 235.1 52.5 226.96 71.17 183.83 71.17"></polygon></clipPath><clipPath id="clip-path-4"><polygon class="cls-1" points="191.99 49.58 200.14 30.91 243.28 30.91 235.13 49.58 191.99 49.58"></polygon></clipPath><clipPath id="clip-path-5"><polygon class="cls-1" points="222.91 60.67 231.05 42 274.19 42 266.04 60.67 222.91 60.67"></polygon></clipPath></defs><title>webdesignvoorweinig_new</title><g id="logo_version_1" data-name="logo version 1"><path class="cls-2" d="M294.64,42.17c0,.76.09,1.63.16,2.6s.14,2,.22,3,.17,2.07.27,3.1.18,2,.28,2.85c.48-.95,1-2,1.48-3.08s1-2.24,1.51-3.41,1-2.37,1.5-3.59,1-2.4,1.42-3.55h4.62q-2.19,5.31-4.46,10.12t-4.87,9.28h-4.09c-.15-1-.28-2-.4-3s-.24-1.88-.34-2.79-.19-1.84-.28-2.77-.16-1.91-.24-2.91q-1.59,3-3.15,5.81c-1,1.89-2.14,3.76-3.31,5.61h-4.09c-.15-1.74-.26-3.45-.32-5.15s-.1-3.43-.1-5.18c0-1.51,0-3,.08-4.52s.13-3,.23-4.55h4.39c-.09,1.64-.18,3.25-.26,4.83s-.13,3.21-.13,4.91v1.93c0,.66,0,1.31.06,2l1.65-2.91c.58-1,1.15-2,1.71-3.08s1.09-2,1.59-3,.93-1.83,1.29-2.59Z"></path><path class="cls-2" d="M304.41,53.73a9.83,9.83,0,0,1,.64-3.47,9.61,9.61,0,0,1,1.77-3,8.84,8.84,0,0,1,2.79-2.1,8.19,8.19,0,0,1,3.63-.8,5.64,5.64,0,0,1,1.82.28,4.51,4.51,0,0,1,1.46.81,3.72,3.72,0,0,1,1,1.3,4.27,4.27,0,0,1,.34,1.75,4.77,4.77,0,0,1-.7,2.66A5.23,5.23,0,0,1,315.21,53a9.75,9.75,0,0,1-2.95,1,21.6,21.6,0,0,1-3.73.3,2.52,2.52,0,0,0,.85,1.67,3.52,3.52,0,0,0,2.09.49,11.26,11.26,0,0,0,1.82-.15A9.24,9.24,0,0,0,315,55.8l.31,3.28a12.68,12.68,0,0,1-2,.56,12.87,12.87,0,0,1-2.64.25,7.64,7.64,0,0,1-2.93-.49,5,5,0,0,1-3-3.29A8.35,8.35,0,0,1,304.41,53.73Zm8.15-6a3.49,3.49,0,0,0-2.5,1,5,5,0,0,0-1.42,2.7,15.62,15.62,0,0,0,2.8-.3,6.1,6.1,0,0,0,1.66-.57,1.85,1.85,0,0,0,.78-.73,1.74,1.74,0,0,0,.2-.78C314.08,48.13,313.57,47.68,312.56,47.68Z"></path><path class="cls-2" d="M328.19,44.46a5.22,5.22,0,0,1,2.32.48,4.72,4.72,0,0,1,1.63,1.29,5.56,5.56,0,0,1,.95,1.9,8.84,8.84,0,0,1,.31,2.35,9.62,9.62,0,0,1-2.66,6.65,9.2,9.2,0,0,1-2.92,2,9,9,0,0,1-3.64.74h-.88a11.79,11.79,0,0,1-1.44-.13,15.2,15.2,0,0,1-1.72-.33,9.12,9.12,0,0,1-1.73-.62l4.85-20.36,4.34-.67L325.86,45a7.54,7.54,0,0,1,1.12-.4A5.21,5.21,0,0,1,328.19,44.46Zm-3.64,12A3.78,3.78,0,0,0,326.4,56a5,5,0,0,0,1.49-1.27,6.62,6.62,0,0,0,1-1.81,6.18,6.18,0,0,0,.36-2.1,4.15,4.15,0,0,0-.45-2.1,1.76,1.76,0,0,0-1.65-.75,4.51,4.51,0,0,0-1,.14,2.5,2.5,0,0,0-1.13.58l-1.85,7.68.29,0,.27,0,.33,0Z"></path><path class="cls-2" d="M340.59,59.89a5.6,5.6,0,0,1-2.39-.47,4.4,4.4,0,0,1-1.63-1.31,5.32,5.32,0,0,1-.92-1.93,9,9,0,0,1-.3-2.36,9.53,9.53,0,0,1,2.58-6.56,8.88,8.88,0,0,1,6.47-2.71,9,9,0,0,1,.94.05c.29,0,.58.1.88.17l1.51-6.33,4.34-.67-3.69,15.37a9.18,9.18,0,0,0-.23,3.21,11.32,11.32,0,0,0,.65,2.87l-3.73.53-.31-.64c-.09-.21-.18-.44-.28-.7a7.17,7.17,0,0,1-1.75,1.06A5.27,5.27,0,0,1,340.59,59.89Zm4.82-11.79-.3-.05-.25,0-.32,0H344a3.81,3.81,0,0,0-1.82.46,4.65,4.65,0,0,0-1.44,1.25,6,6,0,0,0-.93,1.78,6.14,6.14,0,0,0-.34,2,4.08,4.08,0,0,0,.46,2.11,1.77,1.77,0,0,0,1.67.77,2.64,2.64,0,0,0,1.17-.25,4.14,4.14,0,0,0,1.12-.84q.06-.7.18-1.47t.27-1.41Z"></path><path class="cls-2" d="M351.88,53.73a9.82,9.82,0,0,1,.63-3.47,9.61,9.61,0,0,1,1.77-3,8.84,8.84,0,0,1,2.79-2.1,8.19,8.19,0,0,1,3.63-.8,5.64,5.64,0,0,1,1.82.28,4.56,4.56,0,0,1,1.47.81,3.82,3.82,0,0,1,1,1.3,4.27,4.27,0,0,1,.35,1.75,4.85,4.85,0,0,1-.7,2.66A5.34,5.34,0,0,1,362.67,53a9.75,9.75,0,0,1-2.95,1,21.6,21.6,0,0,1-3.73.3,2.48,2.48,0,0,0,.86,1.67,3.46,3.46,0,0,0,2.08.49,11.26,11.26,0,0,0,1.82-.15,9.24,9.24,0,0,0,1.74-.47l.31,3.28a12.38,12.38,0,0,1-2,.56,12.87,12.87,0,0,1-2.64.25,7.64,7.64,0,0,1-2.93-.49,5,5,0,0,1-1.93-1.33,5.15,5.15,0,0,1-1.08-2A8.35,8.35,0,0,1,351.88,53.73Zm8.14-6a3.49,3.49,0,0,0-2.5,1,5,5,0,0,0-1.42,2.7,15.62,15.62,0,0,0,2.8-.3,6.1,6.1,0,0,0,1.66-.57,1.85,1.85,0,0,0,.78-.73,1.74,1.74,0,0,0,.2-.78C361.54,48.13,361,47.68,360,47.68Z"></path><path class="cls-2" d="M370.66,56.53a3.39,3.39,0,0,0,2-.4,1.12,1.12,0,0,0,.53-.89,1.44,1.44,0,0,0-.09-.53,1.38,1.38,0,0,0-.32-.42,3.52,3.52,0,0,0-.62-.4c-.26-.14-.6-.31-1-.49s-.9-.43-1.31-.66a4.58,4.58,0,0,1-1.08-.84,3.6,3.6,0,0,1-1-2.62,4.31,4.31,0,0,1,1.67-3.58,7.69,7.69,0,0,1,4.86-1.32,9.6,9.6,0,0,1,2.69.34,9.76,9.76,0,0,1,1.9.72l-1.43,3.11A9.73,9.73,0,0,0,375.9,48a6,6,0,0,0-2.59-.23,2,2,0,0,0-.7.18,1.21,1.21,0,0,0-.52.39,1.07,1.07,0,0,0-.2.67.92.92,0,0,0,.44.84,11.73,11.73,0,0,0,1.22.67c.72.36,1.33.69,1.82,1a5,5,0,0,1,1.16,1,3,3,0,0,1,.63,1.14,5.3,5.3,0,0,1,.19,1.52,4.42,4.42,0,0,1-.37,1.76,4.25,4.25,0,0,1-1.19,1.54,6.27,6.27,0,0,1-2.08,1.09,9.53,9.53,0,0,1-3,.42,11.85,11.85,0,0,1-2-.14,10.7,10.7,0,0,1-1.56-.35A8.2,8.2,0,0,1,366,59c-.31-.15-.55-.27-.71-.37l1.42-3.19a13.07,13.07,0,0,0,1.49.7A6.3,6.3,0,0,0,370.66,56.53Z"></path><path class="cls-2" d="M383.54,59.5H379.4l3.5-14.73h4.17Zm2-16.52a2.55,2.55,0,0,1-1.57-.52,1.82,1.82,0,0,1-.7-1.58,2.64,2.64,0,0,1,.24-1.11,2.95,2.95,0,0,1,1.54-1.49,2.71,2.71,0,0,1,1.1-.23,2.53,2.53,0,0,1,1.57.52,1.83,1.83,0,0,1,.7,1.58,2.64,2.64,0,0,1-.24,1.11,2.67,2.67,0,0,1-.63.89,2.85,2.85,0,0,1-.91.61A2.7,2.7,0,0,1,385.56,43Z"></path><path class="cls-2" d="M400,57.65a13.17,13.17,0,0,1-1.1,3.15A7.22,7.22,0,0,1,397.22,63a6.65,6.65,0,0,1-2.45,1.32,13.49,13.49,0,0,1-6.3.11,11.62,11.62,0,0,1-2.18-.8l1.4-3.3a13.32,13.32,0,0,0,1.8.67,8.11,8.11,0,0,0,2.31.28,3.92,3.92,0,0,0,2.7-.8,3.65,3.65,0,0,0,1.19-2.05l.12-.54a6.08,6.08,0,0,1-1.19.45,5.27,5.27,0,0,1-1.33.17,5.75,5.75,0,0,1-2.27-.41A4,4,0,0,1,389.46,57a4.77,4.77,0,0,1-.89-1.72,7.49,7.49,0,0,1-.3-2.17,8.67,8.67,0,0,1,.79-3.77,8.12,8.12,0,0,1,2.08-2.73,9,9,0,0,1,3-1.65,11.31,11.31,0,0,1,3.54-.56,12.52,12.52,0,0,1,2.66.28,12.25,12.25,0,0,1,2.58.87ZM398.19,48a5.57,5.57,0,0,0-1.18-.11,4.6,4.6,0,0,0-1.9.38,4.53,4.53,0,0,0-1.45,1,4.37,4.37,0,0,0-.92,1.55,6,6,0,0,0-.32,2,5.49,5.49,0,0,0,.08.94,2,2,0,0,0,.31.75,1.52,1.52,0,0,0,.62.52,2.16,2.16,0,0,0,1,.2,5.63,5.63,0,0,0,1-.14,2.55,2.55,0,0,0,1.19-.65Z"></path><path class="cls-2" d="M406.59,45.44l1.05-.32c.38-.12.81-.23,1.28-.33a15.31,15.31,0,0,1,1.6-.26,20,20,0,0,1,2-.09c2.2,0,3.72.63,4.54,1.9s1,3,.42,5.21l-1.91,8H411.4l1.85-7.78c.11-.49.2-1,.27-1.42a3.39,3.39,0,0,0,0-1.2,1.38,1.38,0,0,0-.52-.84,1.94,1.94,0,0,0-1.24-.32,8.54,8.54,0,0,0-1.65.16l-2.72,11.4H403.2Z"></path><path class="cls-3" d="M240.13,85H238.8c-.19-1-.38-2-.56-2.92s-.34-2-.5-3.13-.32-2.36-.49-3.73-.32-3-.49-4.77h1.39c.12,1.46.25,2.79.38,4s.25,2.35.39,3.4.27,2,.41,2.94.3,1.78.46,2.61a70.71,70.71,0,0,0,3.94-6q1.92-3.27,3.72-6.93H249q-1.32,2.46-2.49,4.52t-2.27,3.85c-.72,1.18-1.43,2.28-2.1,3.29S240.82,84.06,240.13,85Z"></path><path class="cls-3" d="M256.77,77.52a9.58,9.58,0,0,1-.55,3.42,7.39,7.39,0,0,1-1.43,2.4,5.74,5.74,0,0,1-1.93,1.42,5.2,5.2,0,0,1-2.09.46,4.07,4.07,0,0,1-1.4-.23,3.2,3.2,0,0,1-2-1.83,4,4,0,0,1-.3-1.59,9.5,9.5,0,0,1,.56-3.42,7.39,7.39,0,0,1,1.43-2.4,5.58,5.58,0,0,1,1.93-1.4,5.18,5.18,0,0,1,2.09-.47,4,4,0,0,1,1.39.24,3.21,3.21,0,0,1,1.17.69,3.35,3.35,0,0,1,.8,1.14A4.07,4.07,0,0,1,256.77,77.52Zm-8.27,4a2.42,2.42,0,0,0,.69,1.87,2.39,2.39,0,0,0,1.66.63,3.52,3.52,0,0,0,1.55-.39,4.35,4.35,0,0,0,1.46-1.18,6.34,6.34,0,0,0,1.1-2,8.53,8.53,0,0,0,.43-2.82,2.29,2.29,0,0,0-2.36-2.5,3.52,3.52,0,0,0-1.55.39A4.45,4.45,0,0,0,250,76.69a6.42,6.42,0,0,0-1.09,2A8.28,8.28,0,0,0,248.5,81.49Z"></path><path class="cls-3" d="M267.82,77.52a9.58,9.58,0,0,1-.56,3.42,7.39,7.39,0,0,1-1.43,2.4,5.64,5.64,0,0,1-1.93,1.42,5.17,5.17,0,0,1-2.09.46,4,4,0,0,1-1.39-.23,3.21,3.21,0,0,1-1.17-.69,3.35,3.35,0,0,1-.8-1.14,4.14,4.14,0,0,1-.29-1.59,9.29,9.29,0,0,1,.56-3.42,7.37,7.37,0,0,1,1.42-2.4,5.67,5.67,0,0,1,1.93-1.4,5.22,5.22,0,0,1,2.09-.47,4.08,4.08,0,0,1,1.4.24,3.2,3.2,0,0,1,2,1.83A3.89,3.89,0,0,1,267.82,77.52Zm-8.28,4a2.42,2.42,0,0,0,.7,1.87,2.37,2.37,0,0,0,1.66.63,3.52,3.52,0,0,0,1.55-.39,4.45,4.45,0,0,0,1.46-1.18,6.54,6.54,0,0,0,1.09-2,8.28,8.28,0,0,0,.43-2.82,2.42,2.42,0,0,0-.69-1.87,2.39,2.39,0,0,0-1.66-.63,3.52,3.52,0,0,0-1.55.39,4.35,4.35,0,0,0-1.46,1.18,6.43,6.43,0,0,0-1.1,2A8.53,8.53,0,0,0,259.54,81.49Z"></path><path class="cls-3" d="M271.37,74.6a11.75,11.75,0,0,1,1.76-.53,8.65,8.65,0,0,1,1.87-.21,5.65,5.65,0,0,1,.93.07,3.74,3.74,0,0,1,.83.21l-.35,1.24a5.66,5.66,0,0,0-1.68-.26,6.59,6.59,0,0,0-1.09.09,6.88,6.88,0,0,0-1.09.25L270.26,85H268.9Z"></path><path class="cls-4" d="M281,84.45a63.57,63.57,0,0,1-.31-7.18c0-2.41.13-4.86.29-7.37h1.38q-.19,3.16-.27,6.42t.05,6.56c.59-.93,1.14-1.8,1.65-2.63s1-1.67,1.52-2.53,1-1.77,1.56-2.73,1.12-2,1.76-3.22h1.26c.07,1,.16,2.09.26,3.13s.19,2,.3,3,.22,1.86.34,2.71.23,1.6.34,2.26c.46-.81.94-1.73,1.43-2.74s1-2.08,1.46-3.21,1-2.27,1.47-3.46,1-2.37,1.43-3.55h1.55q-1.69,4.25-3.37,7.83c-1.13,2.38-2.28,4.62-3.47,6.72h-1.49c-.27-1.47-.52-3.07-.74-4.82S289,76,288.84,74c-1,1.9-2,3.7-3.09,5.39s-2.1,3.39-3.2,5.09Z"></path><path class="cls-4" d="M306.53,76.14a3,3,0,0,1-.57,1.91,3.89,3.89,0,0,1-1.62,1.16,9.52,9.52,0,0,1-2.5.62c-1,.13-2,.22-3.24.28v.44a5.09,5.09,0,0,0,.12,1.13,2.28,2.28,0,0,0,.46.92,2.4,2.4,0,0,0,.94.61,4.18,4.18,0,0,0,1.54.24,5.4,5.4,0,0,0,1.48-.21,5.45,5.45,0,0,0,1.42-.63l.15,1.26a6.93,6.93,0,0,1-1.58.62,7.28,7.28,0,0,1-1.74.22,5.45,5.45,0,0,1-1.94-.3,3.15,3.15,0,0,1-1.28-.82,3,3,0,0,1-.71-1.26,5.86,5.86,0,0,1-.21-1.61,9.06,9.06,0,0,1,.41-2.67,7.59,7.59,0,0,1,1.21-2.37,6.12,6.12,0,0,1,2-1.69,5.4,5.4,0,0,1,2.66-.65,3.13,3.13,0,0,1,2.26.77A2.72,2.72,0,0,1,306.53,76.14Zm-3.17-1.56a3.64,3.64,0,0,0-1.57.35,4.84,4.84,0,0,0-1.33.93,6.07,6.07,0,0,0-1,1.37,6.43,6.43,0,0,0-.64,1.64,25.21,25.21,0,0,0,3-.23,7.58,7.58,0,0,0,2-.53,2.35,2.35,0,0,0,1.06-.81,1.88,1.88,0,0,0,.32-1.08,1.53,1.53,0,0,0-.5-1.23A2,2,0,0,0,303.36,74.58Z"></path><path class="cls-4" d="M309.82,73.6h1.36l-2.63,10.85h-1.36Zm.54-3.17a1.08,1.08,0,0,1,.3-.83,1,1,0,0,1,.66-.29.8.8,0,0,1,.65.27,1.09,1.09,0,0,1-.1,1.45,1.05,1.05,0,0,1-.67.28.79.79,0,0,1-.63-.24A1,1,0,0,1,310.36,70.43Z"></path><path class="cls-4" d="M314.63,74c.54-.15,1.12-.29,1.74-.4a9.44,9.44,0,0,1,1.82-.18,6.6,6.6,0,0,1,1.43.15,3,3,0,0,1,1.17.56,2.83,2.83,0,0,1,.8,1.05,4,4,0,0,1,.29,1.62,8.68,8.68,0,0,1-.08,1.12c-.06.39-.13.77-.23,1.17l-1.3,5.39H318.9l1.16-4.83c.11-.46.21-.93.3-1.4a8.48,8.48,0,0,0,.16-1.37,2.55,2.55,0,0,0-.2-1.07,1.71,1.71,0,0,0-.54-.67,2.14,2.14,0,0,0-.81-.36,4.37,4.37,0,0,0-1-.1,7.08,7.08,0,0,0-1.11.08q-.57.09-1.11.21l-2.29,9.51h-1.36Z"></path><path class="cls-4" d="M326.22,73.6h1.36L325,84.45h-1.36Zm.54-3.17a1.08,1.08,0,0,1,.3-.83,1,1,0,0,1,.66-.29.8.8,0,0,1,.65.27,1.09,1.09,0,0,1-.1,1.45,1.05,1.05,0,0,1-.67.28.79.79,0,0,1-.63-.24A1,1,0,0,1,326.76,70.43Z"></path><path class="cls-4" d="M327.7,86.32a3.42,3.42,0,0,0,1.27.59,6.25,6.25,0,0,0,1.65.23,4.44,4.44,0,0,0,3-.88,4.17,4.17,0,0,0,1.35-2.5l.11-.55a4.75,4.75,0,0,1-1.34.6,5,5,0,0,1-1.43.2,3.91,3.91,0,0,1-1.56-.29,2.91,2.91,0,0,1-1.09-.81,3.44,3.44,0,0,1-.63-1.2,4.91,4.91,0,0,1-.21-1.46,7.49,7.49,0,0,1,.43-2.42,6.64,6.64,0,0,1,1.34-2.23A7,7,0,0,1,332.81,74a7.63,7.63,0,0,1,3.23-.63,6.59,6.59,0,0,1,1.43.16,5.07,5.07,0,0,1,1.19.45l-2.35,9.79a12.71,12.71,0,0,1-.54,1.72,4.52,4.52,0,0,1-1,1.49,4.61,4.61,0,0,1-1.73,1,8.12,8.12,0,0,1-2.79.4,7.24,7.24,0,0,1-.75-.05,8.46,8.46,0,0,1-.85-.16c-.29-.07-.57-.15-.83-.24a3.41,3.41,0,0,1-.72-.33Zm9.41-11.57a5.46,5.46,0,0,0-1.3-.17,5.71,5.71,0,0,0-2.51.51,5.29,5.29,0,0,0-1.76,1.29,5.21,5.21,0,0,0-1,1.74,5.41,5.41,0,0,0-.34,1.84,5.35,5.35,0,0,0,.1,1.08,2.45,2.45,0,0,0,.36.89,1.68,1.68,0,0,0,.69.6,2.47,2.47,0,0,0,1.13.22,4.4,4.4,0,0,0,1.48-.26,6.76,6.76,0,0,0,1.46-.7Z"></path><g class="cls-5"><g class="cls-6"><polyline class="cls-7" points="154.91 50.75 133.34 50.75 118.48 60.08 125.19 69.42 146.76 69.42 161.61 60.08 154.91 50.75"></polyline></g></g><g class="cls-5"><g class="cls-8"><polyline class="cls-4" points="185.24 62.41 163.67 62.41 148.81 71.75 155.53 81.08 177.09 81.08 191.95 71.75 185.24 62.41"></polyline></g></g><g class="cls-5"><g class="cls-9"><polyline class="cls-10" points="224.33 52.5 202.76 52.5 187.9 61.83 194.61 71.17 216.18 71.17 231.03 61.83 224.33 52.5"></polyline></g></g><g class="cls-5"><g class="cls-11"><polyline class="cls-3" points="232.49 30.91 210.92 30.91 196.06 40.25 202.78 49.58 224.34 49.58 239.2 40.25 232.49 30.91"></polyline></g></g><g class="cls-5"><g class="cls-12"><polyline class="cls-13" points="263.41 42 241.84 42 226.98 51.34 233.69 60.67 255.26 60.67 270.12 51.34 263.41 42"></polyline></g></g><polyline class="cls-14" points="272.5 56 258.5 65.46 234.84 65.46 217.93 75.96 195.18 75.96 178.26 86.46 152.5 86.46 144 74.5 122 74.5 114.5 64"></polyline></g></svg> 